Gran.Torino.2008.1080p.mkv
**************************

TiTLE......  Gran Torino
YEAR.......  2008
GENRE......  Drama
iMDB RATE..  User Rating: 8.4/10 (113,797 votes)
iMDB URL...  http://www.imdb.com/title/tt1205489/
Awards 2009: Nominated for Golden Globe. Another 13 wins & 7 nominations
************************************************************************

Video
Duration                         : 1h 56mn
Overall bit rate                 : 8 627 Kbps
Width                            : 1 920 pixels
Height                           : 816 pixels
Display aspect ratio             : 2.35:1
Frame rate                       : 23.976 fps
Stream size                      : 5.65 GiB (80%)

Audio
Format                           : DTS
Format/Info                      : Digital Theater Systems
Bit rate                         : 1 510 Kbps
Channel(s)                       : 6 channels
Channel positions                : Front: L C R, Surround: L R, LFE
Sampling rate                    : 48.0 KHz
Resolution                       : 24 bits
Stream size                      : 1.23 GiB (18%)
Language                         : English

Subtitles: English(Non-Eng Parts), English, Dutch, French, Portuguese
*********************************************************************


